<svg width="16" height="16" viewBox="0 0 16 16" fill="none" xmlns="http://www.w3.org/2000/svg">
<path d="M9.88516 7.52777L7.0585 4.70111C6.99652 4.63862 6.92279 4.58902 6.84155 4.55518C6.76031 4.52133 6.67317 4.50391 6.58516 4.50391C6.49716 4.50391 6.41002 4.52133 6.32878 4.55518C6.24754 4.58902 6.17381 4.63862 6.11183 4.70111C5.98766 4.82601 5.91797 4.99498 5.91797 5.17111C5.91797 5.34723 5.98766 5.5162 6.11183 5.64111L8.47183 8.00111L6.11183 10.3611C5.98766 10.486 5.91797 10.655 5.91797 10.8311C5.91797 11.0072 5.98766 11.1762 6.11183 11.3011C6.17412 11.3629 6.248 11.4118 6.32923 11.445C6.41045 11.4781 6.49743 11.4949 6.58516 11.4944C6.6729 11.4949 6.75988 11.4781 6.8411 11.445C6.92233 11.4118 6.9962 11.3629 7.0585 11.3011L9.88516 8.47444C9.94765 8.41246 9.99725 8.33873 10.0311 8.25749C10.0649 8.17625 10.0824 8.08911 10.0824 8.00111C10.0824 7.9131 10.0649 7.82596 10.0311 7.74472C9.99725 7.66348 9.94765 7.58975 9.88516 7.52777Z" fill="white"/>
</svg>
